<?xml version="1.0" standalone="no"?>
<!DOCTYPE svg PUBLIC "-//W3C//DTD SVG 20010904//EN"
 "http://www.w3.org/TR/2001/REC-SVG-20010904/DTD/svg10.dtd">
<svg version="1.0" xmlns="http://www.w3.org/2000/svg"
 width="356.000000pt" height="121.000000pt" viewBox="0 0 356.000000 121.000000"
 preserveAspectRatio="xMidYMid meet">

<g transform="translate(0.000000,121.000000) scale(0.100000,-0.100000)"
fill="#000000" stroke="none">
<path d="M208 1174 c-58 -96 -198 -349 -198 -357 0 -12 203 -366 210 -367 7 0
203 353 203 365 0 6 -44 84 -98 175 -53 91 -100 171 -105 179 -4 7 -10 10 -12
5z"/>
<path d="M1511 1026 c-9 -10 -8 -16 3 -25 10 -9 16 -8 25 3 9 10 8 16 -3 25
-10 9 -16 8 -25 -3z"/>
<path d="M1590 927 l0 -104 53 -1 c73 -1 97 16 97 73 0 55 -30 81 -85 72 -34
-6 -35 -5 -35 29 0 24 -5 34 -15 34 -12 0 -15 -18 -15 -103z m108 1 c7 -7 12
-21 12 -33 0 -12 -5 -26 -12 -33 -7 -7 -21 -12 -33 -12 -12 0 -26 5 -33 12 -7
7 -12 21 -12 33 0 12 5 26 12 33 7 7 21 12 33 12 12 0 26 -5 33 -12z"/>
<path d="M1287 1014 c-4 -4 -7 -49 -7 -101 0 -86 1 -93 20 -93 17 0 20 7 20
40 l0 40 50 0 50 0 0 -40 c0 -29 4 -40 15 -40 12 0 15 18 15 100 0 82 -3 100
-15 100 -11 0 -15 -11 -15 -40 l0 -40 -49 0 -50 0 -3 37 c-3 35 -17 51 -31 37z"/>
<path d="M2838 1005 c-35 -20 -48 -44 -48 -90 0 -102 150 -133 194 -40 20 41
12 86 -19 115 -30 28 -92 35 -127 15z m96 -36 c50 -39 22 -119 -43 -119 -33 0
-71 39 -71 72 0 24 44 68 68 68 11 0 31 -9 46 -21z"/>
<path d="M3040 920 c0 -82 3 -100 15 -100 10 0 15 10 15 30 0 26 4 30 28 30
20 0 32 -8 45 -30 11 -18 27 -30 38 -30 20 0 20 0 -1 30 l-21 30 20 22 c54 57
2 118 -100 118 l-39 0 0 -100z m95 60 c21 -8 26 -16 23 -38 -3 -24 -7 -27 -45
-30 l-43 -3 0 40 c0 45 13 51 65 31z"/>
<path d="M3247 1013 c-4 -3 -7 -48 -7 -100 0 -76 3 -93 15 -93 12 0 15 13 15
55 0 30 4 55 9 55 5 0 21 -20 35 -45 15 -25 30 -45 34 -45 4 0 21 24 37 53
l30 52 3 -62 c2 -47 7 -63 17 -63 12 0 15 19 15 100 0 62 -4 100 -10 100 -6 0
-23 -21 -38 -46 -55 -94 -52 -94 -96 -20 -37 64 -46 73 -59 59z"/>
<path d="M2440 985 c0 -8 -7 -15 -15 -15 -8 0 -15 -7 -15 -15 0 -8 7 -15 15
-15 11 0 15 -12 15 -48 0 -55 12 -72 53 -72 34 0 33 23 -1 28 -19 3 -22 10
-22 48 0 37 3 44 20 44 11 0 20 7 20 15 0 8 -9 15 -20 15 -11 0 -20 7 -20 15
0 8 -7 15 -15 15 -8 0 -15 -7 -15 -15z"/>
<path d="M1510 895 c0 -60 3 -75 15 -75 12 0 15 15 15 75 0 60 -3 75 -15 75
-12 0 -15 -15 -15 -75z"/>
<path d="M1792 947 c-61 -65 19 -159 99 -116 29 15 14 28 -26 22 -22 -4 -41
-1 -52 8 -14 12 -9 15 43 19 69 6 80 24 40 65 -32 32 -75 33 -104 2z m88 -22
c11 -13 6 -15 -35 -15 -41 0 -46 2 -35 15 7 8 23 15 35 15 12 0 28 -7 35 -15z"/>
<path d="M1952 897 c2 -58 6 -72 20 -75 14 -3 17 6 20 50 2 44 7 55 26 63 37
16 26 32 -23 33 l-46 0 3 -71z"/>
<path d="M2070 893 c0 -58 3 -73 15 -73 11 0 15 11 15 43 0 54 18 80 51 75 22
-3 24 -8 27 -60 2 -43 7 -58 17 -58 15 0 19 21 15 90 -2 46 -22 60 -86 58
l-54 -2 0 -73z"/>
<path d="M2270 960 c-21 -13 -5 -23 37 -24 43 -1 59 -26 16 -26 -33 0 -73 -25
-73 -45 0 -29 30 -44 86 -44 l56 1 -4 60 c-3 44 -10 64 -23 74 -21 16 -73 18
-95 4z m80 -94 c0 -16 -34 -31 -50 -21 -22 14 -10 35 20 35 19 0 30 -5 30 -14z"/>
<path d="M2555 945 c-14 -13 -25 -36 -25 -50 0 -55 82 -96 130 -65 22 13 5 23
-42 24 -23 1 -43 6 -45 14 -3 9 11 12 51 12 53 0 56 1 56 25 0 61 -80 86 -125
40z m93 -22 c2 -9 -9 -13 -37 -13 -39 0 -50 8 -34 24 11 11 66 2 71 -11z"/>
<path d="M857 803 c-3 -4 -50 -88 -106 -185 l-101 -177 52 -88 c159 -274 160
-275 173 -256 6 10 54 91 105 180 63 111 90 168 86 180 -6 14 -191 338 -202
351 -1 2 -4 0 -7 -5z"/>
</g>
</svg>
