<?xml version="1.0" standalone="no"?>
<!DOCTYPE svg PUBLIC "-//W3C//DTD SVG 20010904//EN"
 "http://www.w3.org/TR/2001/REC-SVG-20010904/DTD/svg10.dtd">
<svg version="1.0" xmlns="http://www.w3.org/2000/svg"
 width="151.000000pt" height="45.000000pt" viewBox="0 0 151.000000 45.000000"
 preserveAspectRatio="xMidYMid meet">

<g transform="translate(0.000000,45.000000) scale(0.100000,-0.100000)"
fill="#000000" stroke="none">
<path d="M228 283 c-20 -21 -42 -51 -50 -67 l-15 -29 -12 62 c-11 56 -14 61
-29 49 -13 -11 -14 -11 -7 1 5 10 4 12 -3 7 -23 -14 -9 -126 21 -164 8 -10 13
-10 25 0 13 11 14 11 7 -1 -6 -11 -4 -13 9 -8 10 4 20 7 22 7 3 0 3 4 0 9 -3
5 4 15 17 24 21 14 69 96 74 127 2 15 -47 -34 -80 -80 -10 -14 -15 -18 -11
-10 4 8 23 36 41 63 19 26 33 47 31 47 -2 0 -20 -17 -40 -37z m-111 -25 c-3
-8 -6 -5 -6 6 -1 11 2 17 5 13 3 -3 4 -12 1 -19z"/>
<path d="M466 238 c-4 -46 -9 -100 -12 -121 -5 -35 -4 -37 20 -37 l26 0 1 98
c1 102 3 102 34 -10 14 -49 20 -58 39 -58 20 0 25 10 42 78 17 71 19 74 21 37
8 -120 14 -145 35 -145 19 0 20 4 14 83 -12 150 -14 157 -45 157 -26 0 -28 -4
-47 -82 l-21 -83 -11 40 c-6 22 -16 59 -22 83 -9 37 -14 42 -39 42 l-29 0 -6
-82z"/>
<path d="M747 253 c-15 -15 -5 -22 35 -25 55 -4 60 -24 9 -32 -48 -7 -77 -42
-65 -78 3 -13 12 -26 18 -30 17 -12 74 -9 82 3 4 8 9 8 17 0 27 -27 34 -11 29
62 -6 98 -12 107 -71 107 -26 0 -51 -3 -54 -7z m83 -97 c0 -30 -13 -46 -36
-46 -18 0 -24 5 -24 23 0 30 7 37 37 37 13 0 23 -6 23 -14z"/>
<path d="M905 240 c44 -140 52 -155 77 -158 24 -3 28 3 56 87 l31 91 -23 0
c-19 0 -25 -10 -40 -70 -10 -39 -20 -69 -23 -67 -2 3 -12 33 -21 68 -14 53
-21 65 -41 67 -19 3 -22 0 -16 -18z"/>
<path d="M1111 234 c-30 -38 -28 -103 2 -132 27 -25 98 -30 116 -9 16 20 4 26
-35 20 -36 -6 -64 9 -64 33 0 10 16 14 60 14 56 0 60 1 60 24 0 13 -9 35 -21
50 -16 20 -29 26 -59 26 -30 0 -43 -6 -59 -26z m89 -24 c10 -18 8 -20 -30 -20
-41 0 -49 7 -28 28 18 18 46 14 58 -8z"/>
<path d="M1290 170 c0 -83 1 -90 20 -90 18 0 20 7 20 63 0 65 11 87 42 87 14
0 18 -11 20 -72 3 -67 5 -73 26 -76 21 -3 22 0 22 68 0 89 -10 110 -53 110
-18 0 -38 -5 -45 -12 -9 -9 -12 -9 -12 0 0 7 -9 12 -20 12 -19 0 -20 -7 -20
-90z"/>
</g>
</svg>
